<svg version="1.1" xmlns="http://www.w3.org/2000/svg" style="display: block;" viewBox="0 0 2048 2048" width="1024" height="1024" preserveAspectRatio="none">
<path transform="translate(0,0)" fill="rgb(23,97,150)" d="M 1110.94 329.156 C 1127.34 323.371 1148.76 315.259 1165.15 311.21 C 1212.9 299.9 1263.1 305.408 1307.26 326.805 C 1338.26 341.669 1364.25 359.653 1386.67 385.976 C 1394.16 394.775 1401.39 407.119 1410.92 413.583 C 1422.32 421.309 1438.59 422.451 1451.7 425.987 C 1474.22 432.064 1500.63 448.76 1509.19 471.602 C 1514.55 485.891 1512.98 670.365 1512.85 701.067 L 1513.17 753.232 C 1520.04 761.993 1530.41 772.247 1536.56 781.865 C 1562.09 821.798 1587.68 902.097 1545.04 939.138 C 1534.4 948.382 1505.43 956.327 1490.81 961.007 C 1490.96 984.924 1491.32 1014.82 1489.82 1038.39 C 1471.05 1062.44 1472.72 1058.34 1445.39 1063.32 L 1444.74 1064.23 C 1432.48 1082.1 1420.99 1108.31 1408.95 1127.25 C 1366.21 1194.48 1303.15 1267.98 1238.09 1314.51 C 1189.55 1353.09 1140.41 1379.88 1084.84 1406.03 C 1019.15 1436.94 1016.88 1429.88 954.176 1401.65 C 852.355 1355.82 768.286 1287.79 694.957 1204.36 C 676.321 1187.43 660.051 1189.6 639.181 1177.51 C 626.645 1170.24 615.894 1157.52 602.434 1151.83 C 591.122 1146.79 572.258 1152.72 562.716 1143.97 C 526.533 1110.8 623.216 1080.78 536.374 1078.79 C 531.195 1078.68 519.462 1073.46 514.59 1069.8 C 502.534 1060.92 494.717 1047.42 493.013 1032.54 C 491.632 1020.73 494.091 1008.8 494.314 996.89 C 494.562 983.611 491.802 969.894 494.691 956.864 C 496.821 947.255 500.72 941.808 506.671 934.516 C 485.756 893.351 487.752 825.101 496.833 780.111 C 501.235 758.3 510.896 733.982 521.29 714.363 C 525.69 706.057 531.556 696.533 533.174 687.177 C 530.407 624.173 534.413 557.369 533.29 494.035 C 532.313 474.025 553.232 440.371 572.411 434.273 C 681.354 399.255 794.843 373.097 904.129 339.396 C 991.482 312.459 1020.46 297.844 1110.94 329.156 z"/>
<path transform="translate(0,0)" fill="rgb(205,183,136)" d="M 533.174 687.177 C 530.407 624.173 534.413 557.369 533.29 494.035 C 532.313 474.025 553.232 440.371 572.411 434.273 C 681.354 399.255 794.843 373.097 904.129 339.396 C 991.482 312.459 1020.46 297.844 1110.94 329.156 C 1087.03 344.024 1067.75 358.03 1048.81 379.344 C 982.767 453.661 976.293 562.527 1028.62 646.243 C 1031.81 651.332 1036.41 658.128 1040.61 662.397 C 1041.13 691.393 1056.93 696.541 1080.25 706.92 C 1071.83 726.122 1060.45 744.471 1050.8 763.31 C 1045.81 765.739 1043.6 766.292 1038.33 767.77 C 1019.22 737.641 1003.09 701.771 984.653 670.975 C 978.569 660.813 969.26 632.088 958.875 627.509 C 946.233 621.935 922.07 624.966 907.009 622.293 L 905.646 622.042 C 887.528 619.85 883.927 621.018 866.811 621.262 C 857.735 620.577 845.911 620.717 836.625 620.563 C 808.677 626.187 794.969 639.954 785.366 666.25 L 784.564 676.925 C 789.456 703.867 803.198 702.832 820.583 718.603 C 818.54 728.022 816.942 735.45 813.62 744.505 C 808.1 764.489 808.666 772.007 811.857 792.724 C 800.096 802.513 793.417 812.964 790.575 828.216 C 755.338 823.746 741.291 827.279 703.509 813.955 C 651.904 795.656 609.376 758.106 584.826 709.164 C 575.329 689.974 569.411 670.018 560.824 652.289 L 560.313 651.254 C 554.295 659.514 539.689 680.458 533.174 687.177 z"/>
<path transform="translate(0,0)" fill="rgb(254,254,254)" d="M 741.038 508.899 C 791.215 488.185 753.444 478.75 753.211 457.462 C 753.036 441.573 793.899 411.719 808.711 400.78 C 804.022 411.048 798.166 421.904 795.519 432.548 C 789.587 456.41 807.081 458.018 814.162 475.983 C 817.082 483.389 816.179 493.175 815.915 501.301 C 822.828 504.32 830.063 506.539 837.48 507.914 C 862.488 498.502 848.458 482.775 861.708 472.841 C 875.457 462.533 921.385 470.989 938.06 473.37 C 922.557 478.906 905.727 484.98 894.596 497.276 C 893.676 525.362 897.321 530.834 872.788 548.227 C 891.549 590.215 893.947 570.431 922.413 557.179 C 945.939 566.571 962.657 592.003 976.355 612.346 C 966.362 608.024 954.76 603.711 944.309 600.786 C 928.002 596.224 918.782 614.737 905.646 622.042 C 887.528 619.85 883.927 621.018 866.811 621.262 C 857.735 620.577 845.911 620.717 836.625 620.563 C 808.677 626.187 794.969 639.954 785.366 666.25 L 784.564 676.925 C 789.456 703.867 803.198 702.832 820.583 718.603 C 818.54 728.022 816.942 735.45 813.62 744.505 C 798.396 758.907 782.717 772.819 766.606 786.222 C 771.671 775.401 778.299 759.701 779.719 747.846 C 781.268 734.905 772.935 729.181 765.297 720.576 C 755.158 709.152 756.679 699.599 757.915 685.596 C 751.869 683.954 742.675 680.516 736.491 678.433 C 723.121 683.89 719.836 689.072 719.926 703.166 C 720.092 728.807 655.317 716.39 639.093 715.11 C 650.129 709.415 666.406 701.932 675.229 693.713 C 683.991 685.551 681.361 678.604 681.564 668.696 C 681.839 655.237 692.152 646.242 701.35 638.043 C 686.108 600.174 678.965 617.402 651.151 628.595 L 649.535 629.237 C 624.33 614.799 612.67 595.852 595.876 572.648 C 621.769 585.989 638.868 595.467 657.833 572.6 C 665.916 562.855 682.01 564.339 694.092 565.197 C 697.219 558.986 699.11 553.864 701.57 547.371 C 692.045 514.894 674.461 534.711 663.484 518.995 C 655.115 507.015 660.852 465.461 664.795 450.443 C 674.553 463.708 676.243 476.659 690.093 487.897 C 718.773 488.385 722.753 484.116 741.038 508.899 z"/>
<path transform="translate(0,0)" fill="rgb(254,254,254)" d="M 785.366 666.25 C 705.33 660.349 690.378 562.914 753.106 528.837 C 769.635 519.722 789.14 517.653 807.213 523.098 C 826.966 529.294 843.454 543.073 853.061 561.411 C 863.01 580.772 862.816 599.738 856.24 620.046 C 849.788 619.945 842.965 619.567 836.625 620.563 C 808.677 626.187 794.969 639.954 785.366 666.25 z"/>
<path transform="translate(0,0)" fill="rgb(205,183,136)" d="M 784.564 676.925 C 783.378 676.195 767.392 674.34 763.853 673.375 C 719.409 661.258 694.968 616.234 706.505 572.418 C 712.103 550.921 726.079 532.563 745.309 521.444 C 764.529 510.314 787.373 507.246 808.848 512.91 C 830.883 519.14 849.61 533.737 861.031 553.586 C 873.716 575.865 873.49 597.36 866.811 621.262 C 857.735 620.577 845.911 620.717 836.625 620.563 C 842.965 619.567 849.788 619.945 856.24 620.046 C 862.816 599.738 863.01 580.772 853.061 561.411 C 843.454 543.073 826.966 529.294 807.213 523.098 C 789.14 517.653 769.635 519.722 753.106 528.837 C 690.378 562.914 705.33 660.349 785.366 666.25 L 784.564 676.925 z"/>
<path transform="translate(0,0)" fill="rgb(51,157,201)" d="M 1110.94 329.156 C 1127.34 323.371 1148.76 315.259 1165.15 311.21 C 1212.9 299.9 1263.1 305.408 1307.26 326.805 C 1338.26 341.669 1364.25 359.653 1386.67 385.976 C 1394.16 394.775 1401.39 407.119 1410.92 413.583 C 1422.32 421.309 1438.59 422.451 1451.7 425.987 C 1474.22 432.064 1500.63 448.76 1509.19 471.602 C 1514.55 485.891 1512.98 670.365 1512.85 701.067 C 1483.2 676.424 1447.78 659.724 1409.9 652.536 C 1339.12 639.422 1280.74 660.442 1223.13 699.731 C 1222.08 681.169 1232.65 661.245 1224.29 643.995 C 1202.25 598.479 1153.23 629.218 1116.09 619.466 C 1109.55 617.75 1096.36 614.948 1090.44 614.937 C 1084.1 614.866 1077.85 616.47 1072.32 619.586 C 1057.29 627.887 1045.5 646.247 1040.61 662.397 C 1036.41 658.128 1031.81 651.332 1028.62 646.243 C 976.293 562.527 982.767 453.661 1048.81 379.344 C 1067.75 358.03 1087.03 344.024 1110.94 329.156 z"/>
<path transform="translate(0,0)" fill="rgb(23,97,150)" d="M 1253.7 346.853 L 1254.49 347.655 C 1255.31 352.147 1254.86 358.51 1254.63 363.246 C 1254.1 374.176 1254.89 391.625 1259.01 401.939 C 1274.6 440.992 1319.71 473.792 1318.66 518.955 C 1318.22 538.182 1307.06 562.107 1292.47 574.959 C 1271.35 593.571 1250.44 595.982 1223.71 594.883 C 1205.28 592.085 1191.61 584.214 1179.02 570.594 C 1115.21 501.581 1199.2 395.139 1253.7 346.853 z"/>
<path transform="translate(0,0)" fill="rgb(51,157,201)" d="M 1280.23 471.429 C 1291.98 478.161 1297.61 503.587 1296.89 516.413 C 1293.7 521.87 1290.81 525.826 1285.86 529.745 C 1270.13 528.944 1266.67 521.538 1271.45 507.411 C 1276.24 493.268 1278.39 485.997 1280.23 471.429 z"/>
<path transform="translate(0,0)" fill="rgb(236,54,52)" d="M 1114.75 949.149 C 1123.23 952.462 1139.21 959.024 1147.63 960.753 C 1136.37 976.499 1109.62 990.746 1113.96 1012.24 C 1118.49 1034.75 1143.1 1062.01 1168.27 1055.07 C 1194.97 1047.7 1218.52 1037.13 1247.08 1042.12 C 1292.54 1118.38 1301.28 1200.96 1257.53 1280.96 C 1251.61 1291.79 1242.97 1303.46 1238.09 1314.51 C 1189.55 1353.09 1140.41 1379.88 1084.84 1406.03 C 1019.15 1436.94 1016.88 1429.88 954.176 1401.65 C 852.355 1355.82 768.286 1287.79 694.957 1204.36 C 708.564 1202.96 728.97 1205.38 744.016 1204.88 C 795.169 1203.13 844.199 1184.01 883.029 1150.66 C 896.397 1139.13 913.399 1113.1 926.492 1106.14 C 925.575 1112.13 923.986 1117.57 922.449 1123.4 C 915.549 1149.57 907.833 1175.61 901.632 1201.96 C 916.446 1187.74 929.832 1171.88 943.845 1156.87 C 950.671 1149.56 958.651 1140.04 966.254 1133.78 L 966.652 1133.39 C 968.896 1129.38 994.596 1101.12 1000.21 1094.07 L 1114.75 949.149 z"/>
<path transform="translate(0,0)" fill="rgb(167,14,16)" d="M 966.652 1133.39 C 978.429 1126.08 997.684 1113.96 1009.15 1128.85 C 1010.2 1130.21 1010.36 1134.39 1009.48 1135.4 C 996.828 1150.03 987.199 1150.73 976.632 1169.16 C 975.567 1163.05 974.495 1155.86 973.192 1149.89 L 972.011 1150.69 C 967.134 1154.04 958.325 1162.26 955.04 1163.73 L 953.589 1163.03 C 951.881 1154.98 962.548 1141.33 966.254 1133.78 L 966.652 1133.39 z"/>
<path transform="translate(0,0)" fill="rgb(167,14,16)" d="M 1029.19 1102.28 C 1051.79 1099.96 1074.11 1103 1094.67 1112.68 C 1128.26 1128.5 1142.7 1158.69 1154.73 1191.81 C 1157.63 1163.23 1155.45 1160.74 1145.54 1135 C 1161.28 1157.28 1171.6 1170.44 1174.5 1198.82 C 1178.49 1237.76 1150.46 1264.61 1126.52 1292.47 C 1153.27 1283.44 1159.09 1278.42 1178.23 1257.36 C 1165.39 1302.87 1150.17 1317.64 1101.18 1322.36 C 1088.04 1323.63 1080.33 1325.32 1071.44 1335.21 C 1085.44 1342.83 1099.2 1340.04 1115.74 1340.49 C 1104.42 1348.46 1095.29 1352.09 1081.71 1355.42 C 1035.56 1366.73 981.76 1366.04 957 1318.44 C 944.265 1293.84 947.978 1262.92 966.948 1242.45 C 994.253 1212.98 1022.55 1230.53 1056.18 1224.59 C 1066.11 1222.84 1085.4 1207.04 1090.96 1206.86 C 1095.83 1211.32 1093.96 1216.93 1092.78 1222.67 C 1087.6 1247.87 1061.7 1254.55 1050.42 1275.67 C 1048.8 1278.7 1048.49 1280.5 1049.64 1283.81 C 1057.41 1292.43 1076.91 1286.65 1085.92 1282.2 C 1105.54 1253.02 1090.15 1233.48 1110.99 1211.02 C 1111.57 1218.44 1110.1 1238.31 1117.03 1241.25 C 1123.01 1238.32 1130.19 1217.75 1128.67 1211.3 C 1126.06 1200.2 1109.76 1199.57 1101.66 1193 C 1089.54 1183.17 1087.14 1169.47 1085.11 1155.04 C 1092.36 1164.65 1095.55 1168.94 1105.03 1176.17 C 1106.04 1172.36 1107.4 1168.24 1108.56 1164.44 C 1091.87 1129.33 1088.12 1131.25 1056.23 1143.3 C 1045.35 1147.41 1033.9 1141.92 1024.22 1136.12 C 1032.28 1136.24 1055.06 1135.91 1055.94 1125.84 C 1048.77 1109.88 1010.23 1111.35 995.873 1113.3 C 1007.81 1106.67 1015.94 1104.81 1029.19 1102.28 z"/>
<path transform="translate(0,0)" fill="rgb(167,14,16)" d="M 1018.41 1153.49 C 1027.09 1154.08 1035.59 1159.23 1042.55 1164.1 C 1053.58 1156.04 1078.84 1147.06 1071.59 1170.7 C 1067.94 1175.96 1066.37 1177.31 1061.82 1181.52 C 1056.29 1181.93 1051.65 1181.79 1046.14 1181.67 C 1034.47 1175.03 1024.87 1165.27 1018.41 1153.49 z"/>
<path transform="translate(0,0)" fill="rgb(74,157,74)" d="M 560.313 651.254 L 560.824 652.289 C 569.411 670.018 575.329 689.974 584.826 709.164 C 609.376 758.106 651.904 795.656 703.509 813.955 C 741.291 827.279 755.338 823.746 790.575 828.216 C 785.013 843.422 780.687 859.95 775.835 875.457 C 773.218 883.817 771.47 892.761 768.007 900.778 L 767.618 901.744 C 761.287 917.777 756.26 941.721 747.364 955.438 C 724.911 990.059 687.066 989.183 709.263 1041.51 C 736.57 1080.95 767.628 1051.51 802.78 1043.87 C 834.672 1036.95 885.487 1057.7 891.958 1010.45 C 895.041 987.941 882.437 973.994 867.877 959.377 C 870.252 932.022 877.587 907.229 887.168 881.635 C 896.277 857.301 900.015 841.822 900.213 815.803 C 917.73 842.351 932.489 869.005 941.947 899.597 C 939.64 908.245 936.443 916.801 933.096 925.105 C 922.244 952.029 911.691 978.57 903.188 1006.35 C 921.315 1006.31 938.658 1004.16 956.54 1004.7 C 947.945 1033.64 936.428 1079.2 926.492 1106.14 C 913.399 1113.1 896.397 1139.13 883.029 1150.66 C 844.199 1184.01 795.169 1203.13 744.016 1204.88 C 728.97 1205.38 708.564 1202.96 694.957 1204.36 C 676.321 1187.43 660.051 1189.6 639.181 1177.51 C 626.645 1170.24 615.894 1157.52 602.434 1151.83 C 591.122 1146.79 572.258 1152.72 562.716 1143.97 C 526.533 1110.8 623.216 1080.78 536.374 1078.79 C 531.195 1078.68 519.462 1073.46 514.59 1069.8 C 502.534 1060.92 494.717 1047.42 493.013 1032.54 C 491.632 1020.73 494.091 1008.8 494.314 996.89 C 494.562 983.611 491.802 969.894 494.691 956.864 C 496.821 947.255 500.72 941.808 506.671 934.516 C 485.756 893.351 487.752 825.101 496.833 780.111 C 501.235 758.3 510.896 733.982 521.29 714.363 C 525.69 706.057 531.556 696.533 533.174 687.177 C 539.689 680.458 554.295 659.514 560.313 651.254 z"/>
<path transform="translate(0,0)" fill="rgb(17,96,44)" d="M 606.975 886.731 C 619.941 865.803 631.488 847.089 659.917 847.519 C 679.764 847.819 691.61 859.823 704.574 872.959 C 736.313 859.437 751.817 876.675 768.007 900.778 L 767.618 901.744 C 761.287 917.777 756.26 941.721 747.364 955.438 C 724.911 990.059 687.066 989.183 709.263 1041.51 C 686.456 1076.69 692.64 1110.19 738.369 1112.1 C 741.744 1112.24 756.415 1115.57 758.315 1118.34 C 755.314 1122.92 748.272 1122.25 743.388 1122.25 C 746.692 1126.4 749.821 1130.82 752.953 1135.11 C 741.237 1135.18 725.741 1132 716.079 1136.06 C 711.637 1137.93 710.873 1142.3 709.465 1146.73 C 699.015 1140.84 692.479 1136.48 683.001 1129.2 C 677.717 1134.94 672.965 1141.14 668.802 1147.74 C 663.71 1140.39 659.667 1135.65 653.765 1128.88 C 645.75 1135.32 643.578 1138.08 638.327 1146.36 C 630.429 1118.93 617.884 1124.11 593.091 1126.01 C 587.896 1126.4 582.58 1127.12 577.391 1127.69 C 585.448 1120.18 591.89 1116.25 601.382 1111.71 C 615.886 1104.78 640.211 1105.06 639.317 1084.24 C 638.698 1069.82 635.167 1059.62 624.895 1049.43 C 619.984 1044.65 614.296 1040.75 608.074 1037.88 C 582.844 1026.44 577.507 1059.96 550.567 1057.75 C 530.678 1056.12 516.858 1039.37 518.042 1019.47 C 518.721 1008.06 522.311 1003.69 530.156 996.536 C 501.064 958.951 535.258 957.118 549.6 928.761 C 547.16 916.462 546.417 905.508 553.826 894.514 C 559.227 886.488 567.654 880.997 577.178 879.298 C 588.808 877.223 597.568 880.478 606.975 886.731 z"/>
<path transform="translate(0,0)" fill="rgb(74,157,74)" d="M 607.577 1004.31 C 622.033 1001.39 648.042 1020.93 641.132 1030.57 C 637.2 1030.75 638.238 1030.53 634.2 1028.03 C 616.373 1014.23 612.995 1013.45 591.566 1006.82 C 596.829 1006.1 602.311 1005.15 607.577 1004.31 z"/>
<path transform="translate(0,0)" fill="rgb(74,157,74)" d="M 696.496 945.927 C 713.931 953.061 718.484 956.246 706.732 972.497 C 703.46 977.015 701.033 979.262 697.128 983.168 C 696.508 971.88 696.891 957.816 696.496 945.927 z"/>
<path transform="translate(0,0)" fill="rgb(74,157,74)" d="M 614.667 965.959 C 619.951 967.261 627.177 969.637 627.192 976.076 C 624.106 978.517 624.615 977.731 619.898 978.135 L 603.677 976.745 C 607.3 972.688 610.695 969.621 614.667 965.959 z"/>
<path transform="translate(0,0)" fill="rgb(74,157,74)" d="M 647.35 946.76 C 661.653 947.706 660.45 953.733 659.363 965.444 C 650.033 960.59 648.31 956.878 647.35 946.76 z"/>
<path transform="translate(0,0)" fill="rgb(0,0,0)" d="M 1223.13 699.731 C 1280.74 660.442 1339.12 639.422 1409.9 652.536 C 1447.78 659.724 1483.2 676.424 1512.85 701.067 L 1513.17 753.232 C 1520.04 761.993 1530.41 772.247 1536.56 781.865 C 1562.09 821.798 1587.68 902.097 1545.04 939.138 C 1534.4 948.382 1505.43 956.327 1490.81 961.007 C 1490.96 984.924 1491.32 1014.82 1489.82 1038.39 C 1471.05 1062.44 1472.72 1058.34 1445.39 1063.32 L 1444.74 1064.23 C 1432.48 1082.1 1420.99 1108.31 1408.95 1127.25 C 1366.21 1194.48 1303.15 1267.98 1238.09 1314.51 C 1242.97 1303.46 1251.61 1291.79 1257.53 1280.96 C 1301.28 1200.96 1292.54 1118.38 1247.08 1042.12 C 1274.34 1040.99 1308.11 1066.69 1331.55 1043.32 C 1350.33 1016.59 1355.65 994.849 1328.02 971.581 C 1314.26 963.994 1303.68 956.758 1295.86 942.681 C 1290.07 934.185 1288.25 919.105 1286.38 908.712 C 1283.04 897.906 1279.69 881.585 1276.5 869.774 C 1270.61 854.977 1263.92 838.133 1259.36 823.024 C 1246.42 794.059 1224.62 730.118 1223.13 699.731 z"/>
<path transform="translate(0,0)" fill="rgb(62,62,62)" d="M 1223.13 699.731 C 1280.74 660.442 1339.12 639.422 1409.9 652.536 C 1447.78 659.724 1483.2 676.424 1512.85 701.067 L 1513.17 753.232 C 1520.04 761.993 1530.41 772.247 1536.56 781.865 C 1562.09 821.798 1587.68 902.097 1545.04 939.138 C 1534.4 948.382 1505.43 956.327 1490.81 961.007 C 1490.96 984.924 1491.32 1014.82 1489.82 1038.39 C 1471.05 1062.44 1472.72 1058.34 1445.39 1063.32 L 1444.74 1064.23 C 1432.48 1082.1 1420.99 1108.31 1408.95 1127.25 C 1366.21 1194.48 1303.15 1267.98 1238.09 1314.51 C 1242.97 1303.46 1251.61 1291.79 1257.53 1280.96 C 1301.28 1200.96 1292.54 1118.38 1247.08 1042.12 C 1274.34 1040.99 1308.11 1066.69 1331.55 1043.32 C 1339.84 1049.67 1343.09 1049.67 1353.07 1050.51 C 1352.98 1040.55 1352.63 1015.3 1357.37 1007.34 L 1359.18 1007 C 1369.02 1015.85 1366.3 1040.5 1373.87 1047.66 C 1379.29 1048.29 1388.52 1046.52 1394.26 1045.67 L 1394.33 1040.52 C 1394.48 1031.58 1394.4 1012.96 1401 1006.58 L 1403.01 1006.78 C 1408.86 1014.19 1407.17 1034.1 1406.97 1043.99 C 1432.37 1033.58 1430.22 1034.73 1438.52 1010.12 C 1439.4 1007.53 1439.83 1005.88 1441.88 1004.33 C 1447.63 1009.24 1446.23 1033.29 1448.08 1043 C 1449.97 1045.71 1452.42 1048.45 1455.92 1048.39 C 1470.18 1048.49 1475.47 1037.2 1476.09 1024.36 C 1477.26 1000.39 1474.2 980.649 1477.23 956.279 C 1498.09 938.5 1522.35 943.49 1539.61 926.207 C 1551.92 913.885 1555.65 890.892 1554.34 873.978 C 1551.11 832.294 1533.05 792.219 1502.2 764.094 C 1487.41 774.434 1474.27 779.834 1456.12 782.64 C 1470.67 772.475 1478.4 766.876 1490.11 753.672 C 1470.31 737.79 1449.44 729.453 1424.17 726.469 C 1391.87 722.655 1344.73 726.76 1318.23 747.371 C 1316.42 778.777 1331.12 784.827 1353.82 801.635 C 1341.53 798.748 1330.17 795.139 1318.19 791.175 C 1310.15 779.771 1308.45 770.741 1305.35 757.487 C 1281.29 774.742 1269.87 795.812 1259.36 823.024 C 1246.42 794.059 1224.62 730.118 1223.13 699.731 z"/>
<path transform="translate(0,0)" fill="rgb(62,62,62)" d="M 1276.5 869.774 C 1279.6 864.706 1282.29 860.348 1286.03 855.752 C 1315.3 819.785 1361.49 847.49 1369.62 885.056 C 1376.99 919.133 1335.1 916.175 1314.01 913.898 C 1309.45 913.406 1288.13 908.147 1286.38 908.712 C 1283.04 897.906 1279.69 881.585 1276.5 869.774 z"/>
<path transform="translate(0,0)" fill="rgb(62,62,62)" d="M 1295.86 942.681 C 1305.63 944.416 1312.9 947.547 1321.5 952.519 C 1323.35 957.634 1326.83 966.498 1328.02 971.581 C 1314.26 963.994 1303.68 956.758 1295.86 942.681 z"/>
<path transform="translate(0,0)" fill="rgb(62,62,62)" d="M 1478.95 839.192 C 1507.15 837.143 1539.48 872.236 1523.83 899.881 C 1517.46 911.143 1494.49 913.44 1481.92 915 C 1450.79 915.674 1412.94 910.124 1437.83 868.279 C 1447.34 852.301 1460.9 843.49 1478.95 839.192 z"/>
<path transform="translate(0,0)" fill="rgb(62,62,62)" d="M 1390.29 908.78 C 1399.87 921.087 1390.47 947.717 1399.77 961.192 L 1401.26 961.159 C 1406.73 953.398 1407.34 919.623 1408.5 907.841 C 1416.05 920.274 1420.3 932.029 1423.9 946.034 C 1426.23 960.3 1425.03 967.431 1421.5 981.306 C 1404.71 972.622 1396.02 975.588 1378.24 980.029 C 1374.25 951.047 1375.84 935.572 1390.29 908.78 z"/>
<path transform="translate(0,0)" fill="rgb(62,62,62)" d="M 1114.75 949.149 C 1121.49 941.108 1131.97 927.943 1138.96 920.722 C 1143.9 933.009 1148.6 947.307 1147.63 960.753 C 1139.21 959.024 1123.23 952.462 1114.75 949.149 z"/>
<path transform="translate(0,0)" fill="rgb(254,254,254)" d="M 835.271 650.192 C 848.007 649.527 863.197 650.694 876.165 651.254 C 898.771 652.302 921.384 653.203 944.002 653.956 C 946.379 658.369 948.964 664.335 950.902 669.035 C 963.137 698.693 980.477 724.835 995.874 752.776 C 1007.67 774.629 1018.62 796.923 1028.71 819.611 C 1036.71 807.818 1050.28 788.936 1066.48 794.686 C 1075.01 796.768 1088.95 810.251 1085.98 820.05 C 1082.02 833.172 1074.1 848.845 1068.44 861.648 C 1059.32 881.954 1050.89 902.56 1043.16 923.431 C 1061.62 920.467 1083.22 919.049 1101.81 917.79 C 1066.02 963.629 1027.52 1010.02 990.92 1055.33 C 981.49 1067.34 971.865 1079.19 962.049 1090.88 C 972.828 1050.18 988.33 1010.23 999.762 969.103 C 983.308 971.45 963.243 972.71 946.631 973.956 C 956.892 952.599 964.677 921.16 975.157 898.904 C 949.02 833.856 939.409 814.26 896.947 758.344 C 892.245 772.973 890.076 780.64 882.043 793.823 C 862.872 805.4 840.21 797.998 839.882 773.367 C 839.724 761.52 846.236 742.52 849.338 730.574 C 852.473 718.881 855.014 707.037 856.952 695.087 C 849.863 689.805 842.036 686.823 833.57 684.515 C 803.825 676.405 815.877 661.118 835.271 650.192 z"/>
<path transform="translate(0,0)" fill="rgb(254,254,254)" d="M 1086.95 644.69 C 1093.83 644.818 1110.64 648.885 1119.03 649.857 C 1143.47 652.694 1161.6 649.739 1185.53 646.316 L 1197.53 654.971 C 1196.85 664.397 1192.76 686.058 1193 693.735 C 1195.11 760.104 1231.62 823.691 1250.56 886.504 C 1257.8 910.519 1258.72 939.145 1271.3 961.488 C 1277.74 972.948 1288.05 982.354 1299.33 988.93 C 1314.66 997.872 1325.87 1007.06 1307.59 1021.59 C 1293.94 1020.6 1282.74 1017.29 1269.39 1014.62 C 1258.2 1012.39 1248.11 1011.55 1236.75 1011.01 C 1207.34 1010.45 1188.78 1013.82 1162.96 1027.15 C 1161.7 1026.76 1160.46 1026.34 1159.23 1025.88 C 1130.75 1015.39 1153.54 998.743 1165.06 987.028 C 1172.13 979.837 1180.27 965.928 1179.15 955.732 C 1176.01 926.973 1163.99 898.334 1154.2 871.125 L 1125.45 791.121 C 1119.51 795.65 1109.38 800.654 1102.02 796.673 C 1066.84 777.657 1089.17 753.47 1103.51 729.747 C 1127.16 690.637 1096.5 682.981 1068.88 667.485 C 1074.3 657.863 1077.96 651.397 1086.95 644.69 z"/>
<path transform="translate(0,0)" fill="rgb(254,254,254)" d="M 840.262 814.2 C 859.419 812.45 871.028 820.034 867.234 840.909 C 863.107 863.608 853.326 885.673 846.618 907.72 C 839.866 929.913 831.618 959.096 845.626 980.213 C 849.776 986.477 858.969 991.506 862.207 998.845 C 865.023 1004.51 862.487 1011.68 855.507 1012.08 C 845.702 1012.63 835.622 1011.36 825.7 1011.08 C 807.966 1010.58 791.116 1014.67 774.256 1019.75 C 752.687 1026.92 739.696 1044.13 731.043 1011.31 C 772.27 990.358 784.839 950.105 797.477 908.656 L 813.473 855.153 C 816.304 845.388 819.012 831.105 823.674 822.521 C 826.73 816.893 834.453 815.442 840.262 814.2 z"/>
<path transform="translate(0,0)" fill="rgb(62,62,62)" d="M 1110.82 843.712 C 1117.58 850.281 1123.84 876.295 1126.54 885.948 C 1120.44 886.241 1114.35 886.579 1108.25 886.962 L 1090.25 887.676 C 1097.41 872.189 1101.66 858.708 1110.82 843.712 z"/>
</svg>
